<svg width="32" height="32" viewBox="0 0 32 32" fill="none" xmlns="http://www.w3.org/2000/svg">
<path d="M4.46154 7.92308C6.37329 7.92308 7.92308 6.37329 7.92308 4.46154C7.92308 2.54978 6.37329 1 4.46154 1C2.54978 1 1 2.54978 1 4.46154C1 6.37329 2.54978 7.92308 4.46154 7.92308Z" stroke="white" stroke-width="2" stroke-linecap="round" stroke-linejoin="round"/>
<path d="M7.9231 4.46155H31" stroke="white" stroke-width="2" stroke-linecap="round" stroke-linejoin="round"/>
<path d="M16 19.4615C17.9117 19.4615 19.4615 17.9117 19.4615 16C19.4615 14.0882 17.9117 12.5385 16 12.5385C14.0882 12.5385 12.5385 14.0882 12.5385 16C12.5385 17.9117 14.0882 19.4615 16 19.4615Z" stroke="white" stroke-width="2" stroke-linecap="round" stroke-linejoin="round"/>
<path d="M1 16H12.5385" stroke="white" stroke-width="2" stroke-linecap="round" stroke-linejoin="round"/>
<path d="M19.4615 16H31" stroke="white" stroke-width="2" stroke-linecap="round" stroke-linejoin="round"/>
<path d="M27.5384 31C29.4502 31 31 29.4502 31 27.5384C31 25.6267 29.4502 24.0769 27.5384 24.0769C25.6267 24.0769 24.0769 25.6267 24.0769 27.5384C24.0769 29.4502 25.6267 31 27.5384 31Z" stroke="white" stroke-width="2" stroke-linecap="round" stroke-linejoin="round"/>
<path d="M24.0769 27.5385H1" stroke="white" stroke-width="2" stroke-linecap="round" stroke-linejoin="round"/>
</svg>
